<?xml version="1.0" encoding="utf-8"?>
<!-- Generator: Adobe Illustrator 27.1.0, SVG Export Plug-In . SVG Version: 6.00 Build 0)  -->
<svg version="1.1" id="Capa_1" xmlns="http://www.w3.org/2000/svg" xmlns:xlink="http://www.w3.org/1999/xlink" x="0px" y="0px"
	 viewBox="0 0 64 64" style="enable-background:new 0 0 64 64;" xml:space="preserve">
<style type="text/css">
	.st0{fill:#76C2AF;}
	.st1{opacity:0.2;}
	.st2{fill:#231F20;}
	.st3{fill:#FFFFFF;}
	.st4{fill:#E0E0D1;}
	.st5{fill:#4F5D73;}
</style>
<g id="Layer_1">
	<g>
		<circle class="st0" cx="32" cy="32" r="32"/>
	</g>
	<g class="st1">
		<path class="st2" d="M44.9,53.6c0,1.2-1,2.2-2.2,2.2H21.2c-1.2,0-2.2-1-2.2-2.2l0,0c0-1.2,1-2.2,2.2-2.2h21.6
			C44,51.4,44.9,52.4,44.9,53.6L44.9,53.6z"/>
	</g>
	<g>
		<path class="st3" d="M44.9,51.4c0,1.2-1,2.2-2.2,2.2H21.2c-1.2,0-2.2-1-2.2-2.2l0,0c0-1.2,1-2.2,2.2-2.2h21.6
			C44,49.3,44.9,50.2,44.9,51.4L44.9,51.4z"/>
	</g>
	<g>
		<path class="st4" d="M37.4,42.8c0,0-1.1,6.5,3.2,6.5c0,0-21.6,0-17.3,0s3.2-6.5,3.2-6.5H37.4z"/>
	</g>
	<g class="st1">
		<g>
			<path class="st2" d="M53.6,40.6c0,2.4-1.9,4.3-4.3,4.3H14.7c-2.4,0-4.3-1.9-4.3-4.3V16.9c0-2.4,1.9-4.3,4.3-4.3h34.5
				c2.4,0,4.3,1.9,4.3,4.3V40.6z"/>
		</g>
	</g>
	<g>
		<g>
			<path class="st5" d="M14.7,41.2c-1.5,0-2.7-1.2-2.7-2.7V14.7c0-1.5,1.2-2.7,2.7-2.7h34.5c1.5,0,2.7,1.2,2.7,2.7v23.7
				c0,1.5-1.2,2.7-2.7,2.7H14.7z"/>
		</g>
		<g>
			<path class="st3" d="M49.3,13.7c0.6,0,1.1,0.4,1.1,1.1v23.7c0,0.6-0.4,1.1-1.1,1.1H14.7c-0.6,0-1.1-0.4-1.1-1.1V14.7
				c0-0.6,0.4-1.1,1.1-1.1H49.3 M49.3,10.4H14.7c-2.4,0-4.3,1.9-4.3,4.3v23.7c0,2.4,1.9,4.3,4.3,4.3h34.5c2.4,0,4.3-1.9,4.3-4.3
				V14.7C53.6,12.4,51.6,10.4,49.3,10.4L49.3,10.4z"/>
		</g>
	</g>
	<g class="st1">
		<polygon class="st3" points="51.4,40.5 51.4,12.5 25.7,12.5 41.9,40.5 		"/>
	</g>
</g>
<g id="Layer_2">
</g>
</svg>
